<svg id="Capa_1" data-name="Capa 1" xmlns="http://www.w3.org/2000/svg" viewBox="0 0 107.68 25"><defs><style>.cls-1{fill:#3cddf3;fill-rule:evenodd;}.cls-2{fill:#fff;}</style></defs><title>logo blanco</title><path class="cls-1" d="M24.82,15.13A12.5,12.5,0,0,0,2.34,5.72a9.53,9.53,0,0,1,3.76.22c3.14.79,5.8,3,8,4.85l.17.14c2.29,1.93,4.15,3.49,6.14,4.23A5.94,5.94,0,0,0,24.82,15.13Zm-2.38,5.45A12.5,12.5,0,0,1,0,13c0-.36,0-.71,0-1.06,2.07-1.41,3.59-1.47,4.83-1.16,1.83.47,3.64,1.86,6,3.83l.42.36h0a26.35,26.35,0,0,0,7.37,4.88A11.3,11.3,0,0,0,22.44,20.58Z" transform="translate(0 -0.5)"/><path class="cls-2" d="M39.41,20.4a6.36,6.36,0,0,1-2.93-.63,4.69,4.69,0,0,1-1.85-1.66A4.2,4.2,0,0,1,34,15.92v-.15h3.41v.15a1.7,1.7,0,0,0,.53,1.22,2.06,2.06,0,0,0,1.54.54,2.13,2.13,0,0,0,1.34-.39,1.31,1.31,0,0,0,.53-1.09,1.17,1.17,0,0,0-.45-1,2.43,2.43,0,0,0-1.14-.46l-1.52-.3a6.45,6.45,0,0,1-2.7-1.2,3.26,3.26,0,0,1-1.21-2.78,3.54,3.54,0,0,1,1.39-3,5.56,5.56,0,0,1,3.56-1.1A6,6,0,0,1,42,7,4.28,4.28,0,0,1,43.8,8.55a3.66,3.66,0,0,1,.61,2v.1H41v-.07a1.62,1.62,0,0,0-.46-1.12A1.7,1.7,0,0,0,39.15,9a1.89,1.89,0,0,0-1.26.41,1.34,1.34,0,0,0-.48,1.07,1.15,1.15,0,0,0,.48,1,2.93,2.93,0,0,0,1.24.48l1.67.33a6.22,6.22,0,0,1,2.72,1.3,3.22,3.22,0,0,1,1.11,2.63A3.76,3.76,0,0,1,44,18.39a4.31,4.31,0,0,1-1.89,1.5A6.66,6.66,0,0,1,39.41,20.4Z" transform="translate(0 -0.5)"/><path class="cls-2" d="M53.83,20.4a4,4,0,0,1-2.65-.79,5,5,0,0,1-1.41-1.73h-.21V25.5H46.05V6.74h3.51V8.83h.21A4.7,4.7,0,0,1,51.13,7.2a4.14,4.14,0,0,1,2.68-.79,4.52,4.52,0,0,1,3.91,1.91,8.54,8.54,0,0,1,1.39,5.13,8.34,8.34,0,0,1-1.39,5A4.47,4.47,0,0,1,53.83,20.4Zm-1.26-2.8a2.45,2.45,0,0,0,2.25-1.22,5.57,5.57,0,0,0,.76-3,5.33,5.33,0,0,0-.76-2.88,2.45,2.45,0,0,0-2.25-1.22,2.5,2.5,0,0,0-2.25,1.22,5.46,5.46,0,0,0-.76,2.91,5.53,5.53,0,0,0,.76,2.93A2.5,2.5,0,0,0,52.57,17.6Z" transform="translate(0 -0.5)"/><path class="cls-2" d="M66.79,20.4a6.3,6.3,0,0,1-3.53-.94,6,6,0,0,1-2.12-2.55,8.24,8.24,0,0,1-.71-3.46A8.73,8.73,0,0,1,61.11,10a5.86,5.86,0,0,1,2.15-2.57,6.93,6.93,0,0,1,7.07,0,5.73,5.73,0,0,1,2.15,2.52,8.41,8.41,0,0,1,.71,3.47,8.61,8.61,0,0,1-.71,3.49,5.9,5.9,0,0,1-2.15,2.54A6.17,6.17,0,0,1,66.79,20.4Zm0-2.85A2.42,2.42,0,0,0,69,16.38a5.45,5.45,0,0,0,.76-3A5.22,5.22,0,0,0,69,10.46a2.64,2.64,0,0,0-4.39,0,5.39,5.39,0,0,0-.74,2.94,5.63,5.63,0,0,0,.74,3A2.44,2.44,0,0,0,66.79,17.55Z" transform="translate(0 -0.5)"/><path class="cls-2" d="M74.88,6.74h3.46V8.88h.17a3.18,3.18,0,0,1,1.22-1.5A3.81,3.81,0,0,1,82,6.74a3.43,3.43,0,0,1,.91.11l-.15,3.23a4.87,4.87,0,0,0-1.34-.18,3,3,0,0,0-2.33.84,4,4,0,0,0-.75,2.73V20.2H74.88Z" transform="translate(0 -0.5)"/><path class="cls-2" d="M88.66,9.5v6a8.39,8.39,0,0,0,.08,1.33,1.05,1.05,0,0,0,.5.69,2.58,2.58,0,0,0,1.32.25,5.79,5.79,0,0,0,1.08-.1V20.1l-1,.12a10.9,10.9,0,0,1-1.39.08,5.62,5.62,0,0,1-2.75-.53,2.43,2.43,0,0,1-1.11-1.38,8.42,8.42,0,0,1-.23-2.14V9.5H82.93V6.74h2.25V2.36h3.48V6.74h3V9.5Z" transform="translate(0 -0.5)"/><path class="cls-2" d="M93.81,6.74H97.3V20.2H93.81Zm1.72-2.32a1.85,1.85,0,0,1-1.39-.56,2,2,0,0,1-.56-1.4,1.91,1.91,0,0,1,.56-1.4A1.88,1.88,0,0,1,95.53.5a1.84,1.84,0,0,1,1.39.59,1.86,1.86,0,0,1,.55,1.37,2,2,0,0,1-.55,1.4A1.85,1.85,0,0,1,95.53,4.42Z" transform="translate(0 -0.5)"/><path class="cls-2" d="M104.7,9.5v6a8.39,8.39,0,0,0,.08,1.33,1.08,1.08,0,0,0,.5.69,2.58,2.58,0,0,0,1.32.25,5.79,5.79,0,0,0,1.08-.1V20.1l-1,.12a10.9,10.9,0,0,1-1.39.08,5.67,5.67,0,0,1-2.75-.53,2.43,2.43,0,0,1-1.11-1.38,8.42,8.42,0,0,1-.23-2.14V9.5H99V6.74h2.25V2.36h3.48V6.74h3V9.5Z" transform="translate(0 -0.5)"/></svg>